<?xml version="1.0" encoding="UTF-8"?>
<svg id="_ÎÓÈ_1" data-name="—ÎÓÈ_1" xmlns="http://www.w3.org/2000/svg" xmlns:xlink="http://www.w3.org/1999/xlink" viewBox="0 0 3858.36 3770.45">
  <defs>
    <style>
      .cls-1 {
        fill: #032e58;
      }

      .cls-2 {
        fill: #00233f;
      }

      .cls-3 {
        fill: #f1c0c7;
      }

      .cls-4 {
        fill: #eaadb9;
      }

      .cls-5 {
        fill: #fff;
      }

      .cls-6 {
        fill: #ffb7ba;
      }

      .cls-7 {
        fill: #102d55;
      }

      .cls-8 {
        stroke: #ed7777;
        stroke-width: 9.5px;
      }

      .cls-8, .cls-9 {
        stroke-miterlimit: 10;
      }

      .cls-8, .cls-9, .cls-10 {
        fill: none;
      }

      .cls-9 {
        stroke: #072146;
        stroke-width: 6.33px;
      }

      .cls-10 {
        clip-path: url(#clippath);
      }
    </style>
    <clipPath id="clippath">
      <path class="cls-1" d="m2695.22,1215.32s-168.68-266-224.71-290.51c-23.52-10.28-34.09-9.75-179.88,13.14,0,0-36.73-108.57-144.56-107.15,0,0-84.5-69.93-224.36-37.88l-203.94,33.01-340.93-3.87c-107.81,32.05-63.6,65.1-43.71,107.81,0,0-125.45,22.05-132.57,98.34-15.3,163.9,233.83,498.25,233.83,498.25,1.33-523.88,714.28-432.76,758.71-498.05,26.9,41.33,281.72,190.19,310.97,431.68,0,0,255.89-149.1,191.14-244.76Z"/>
    </clipPath>
  </defs>
  <g>
    <path class="cls-3" d="m2446.21,2845.69c-12.04,19.17-160.65,185.11-430.08,196.73-257.76,11.11-413.74-173.95-430.22-194.22,24.07-260.06,48.15-520.11,72.22-780.17l658.46,24.66,39.77,228.99,89.85,524.01Z"/>
    <path class="cls-4" d="m2288.32,2331.76c-42.98,111.91-100.16,179.08-142.93,219.11-112.73,105.5-215.39,106.71-367.1,228.35-64.93,52.06-105.37,96.72-132.41,130.04-10.2-8.83-21.32-19.48-32.16-30.75-8.53-8.87-20.58-21.63-27.57-30.04,24.07-260.06,47.92-508.82,71.99-768.88l658.46,24.66c-9.43,75.84-18.85,151.67-28.28,227.51Z"/>
    <path class="cls-6" d="m1450.16,1624.9s-58.68-99.95-110.08-88.3c-18.36,4.16-28.81,20.9-33.23,27.85-52.29,82.24,31.92,253.34,46,281.32,7.24,13.27,38.92,68.42,95.54,88.47,13.39,4.74,39.51,13.99,69,5.31,12.01-3.53,21.16-8.71,23.35-10.75,61.7-57.23-90.59-303.88-90.59-303.88Z"/>
    <path class="cls-6" d="m2486.97,1594.52c15.45-13.38,68.88-58.64,106.16-42.46,50.44,21.89,40.48,142.87,21.23,210.55,0,0-23.57,82.89-106.42,156.02-7.42,6.55-24.53,21.65-49.27,24.48-3.64.42-9.09,1.04-11.72.25-15.22-4.61-14-80.82,40.03-348.84Z"/>
    <path class="cls-3" d="m1996.51,976.13c-52.53-2.12-158.9.44-274.22,54.9-87.27,41.22-144.32,95.47-176.13,130.92-91.24,129.45-111.62,238.19-115.93,304.07-2.83,43.26,1.09,89.37,8.92,181.6,6.69,78.76,11.88,139.93,28.98,217.5,11.53,52.28,31.27,124.74,66.88,209.05,4.07,8.61,8.7,17.92,13.96,27.82,3.87,7.29,27.57,51.46,64.07,98.88,26.17,34,64.59,83.91,125.49,129.51,47.84,35.82,115.34,86.37,217.85,96.43,10.4,1.02,120.41,12.35,222.94-46.45,81.31-46.63,127.68-101.42,162.75-147.81,56.2-74.36,86.16-149.09,102.55-209.05,16.74-72.34,49.43-143.55,60.2-230.04,13.18-105.9.13-212.29,0-299.97-8.23-48.31-23.86-116.05-57.97-192.16-22.41-50.01-47.61-92.25-71.34-126.7-25.16-33.83-77.78-95.11-167.21-141.48-87.42-45.34-168.37-54.83-211.79-57.01Z"/>
    <g>
      <path class="cls-1" d="m2695.22,1215.32s-168.68-266-224.71-290.51c-23.52-10.28-34.09-9.75-179.88,13.14,0,0-36.73-108.57-144.56-107.15,0,0-84.5-69.93-224.36-37.88l-203.94,33.01-340.93-3.87c-107.81,32.05-63.6,65.1-43.71,107.81,0,0-125.45,22.05-132.57,98.34-15.3,163.9,233.83,498.25,233.83,498.25,1.33-523.88,714.28-432.76,758.71-498.05,26.9,41.33,281.72,190.19,310.97,431.68,0,0,255.89-149.1,191.14-244.76Z"/>
      <g class="cls-10">
        <path class="cls-2" d="m2486.97,1569.93s271.78-159.03,80.41-452.51c0,0-116.09-155.69-325.06-128.61,0,0-62.07-185.03-212.25-193.54-150.18-8.51-894.51,146.15-894.51,213.85s-294.1-440-294.1-440l1555.65-264,137.19,67.65,1016.01,230.19-38.7,412.92-182.8,488.8-569.42,267.85-272.42-202.6Z"/>
      </g>
    </g>
    <path class="cls-7" d="m1468.52,1649.79c-18.51-10.74-33.57-27.34-42.48-46.8-4.48-9.79-7.41-20.21-9.9-30.68-8.82-37.13-12.16-75.53-10.06-113.63,2.08-37.64,12.62-72.33,23.63-17.23,13.65,68.29,53.84,136.94,38.8,208.34Z"/>
    <path class="cls-7" d="m2493.94,1657.65c20.75-52.4,54.64-104.2,46.93-160.03-3.53-25.56-15.65-48.98-25.28-72.91-15.69-38.97-23.18-79.11-28.01-120.58-4.71-.61-42.17-34.79-46.4-32.68-11.89,112.28,38.66,274.56,52.77,386.2Z"/>
  </g>
  <g>
    <path d="m1690.9,1439.21c-14.89,0-27,12.11-27,27s12.11,27,27,27,27-12.11,27-27-12.11-27-27-27Z"/>
    <path d="m2272,1439.21c-14.89,0-27,12.11-27,27s12.11,27,27,27,27.01-12.11,27.01-27-12.12-27-27.01-27Z"/>
    <path class="cls-9" d="m1772.66,1373.99c-109.02-71.1-193.78,26.35-193.78,26.35"/>
    <path class="cls-9" d="m2178.2,1370.82s117.22-54.23,187.6,55.25"/>
    <polyline class="cls-8" points="1990.58 1559.16 2022.44 1781.26 1957.5 1815.73"/>
    <path class="cls-5" d="m1910.95,1984.38c27.11,3.92,84.1,8.67,135.04-9.69,4.03-1.45,7.57,3.18,5.22,6.76-7.59,11.55-24.12,28.93-57.28,36.14-35.44,7.71-68.78-12.04-86.25-25.24-3.68-2.78-1.28-8.62,3.28-7.96Z"/>
  </g>
</svg>